<svg width="22" height="19" viewBox="0 0 22 19" fill="none" xmlns="http://www.w3.org/2000/svg">
<path d="M3 18H19C19.5304 18 20.0391 17.7893 20.4142 17.4142C20.7893 17.0391 21 16.5304 21 16V6C21 5.46957 20.7893 4.96086 20.4142 4.58579C20.0391 4.21071 19.5304 4 19 4H11.07C10.7406 3.9983 10.4167 3.91525 10.1271 3.75824C9.8375 3.60123 9.59118 3.37512 9.41 3.1L8.59 1.9C8.40882 1.62488 8.1625 1.39877 7.8729 1.24176C7.58331 1.08475 7.25941 1.0017 6.93 1H3C2.46957 1 1.96086 1.21071 1.58579 1.58579C1.21071 1.96086 1 2.46957 1 3V16C1 17.1 1.9 18 3 18Z" fill="#ffffff" stroke="black" stroke-width="2" stroke-linecap="round" stroke-linejoin="round"/>
</svg>
